Coordinates
version=1
nRows=9
nColumns=24
inDegrees=yes

Units are S.I. units (second, meters, Newtons, ...)
Angles are in degrees.

endheader
time	pelvis_tilt	pelvis_list	pelvis_rotation	pelvis_tx	pelvis_ty	pelvis_tz	hip_flexion_r	hip_adduction_r	hip_rotation_r	knee_angle_r	ankle_angle_r	subtalar_angle_r	mtp_angle_r	hip_flexion_l	hip_adduction_l	hip_rotation_l	knee_angle_l	ankle_angle_l	subtalar_angle_l	mtp_angle_l	lumbar_extension	lumbar_bending	lumbar_rotation
      0.57600000	     -0.60428120	      6.16191292	      3.86432826	     -0.88767757	      0.99359529	      0.27261569	     22.93260833	     -7.54420183	    -11.05432918	      5.37968946	      0.12181370	     -5.88828823	     -0.52661164	    -13.31053520	      7.03242913	     -2.18625534	     -5.70142066	     11.45983345	     -7.05696456	     -0.12603403	    -11.61237855	     -6.35336434	     -2.16476831
      0.58016667	     -0.36103664	      6.03803425	      4.06520168	     -0.88201652	      0.99332897	      0.27247318	     22.75479591	     -7.49453630	    -11.03906629	      4.79756990	     -0.02113850	     -6.31160332	     -0.77812583	    -13.74205768	      6.78365061	     -2.05612614	     -6.05673385	     11.61885013	     -6.92733449	     -0.27861438	    -11.90154826	     -6.07935041	     -2.50968524
      0.58433333	     -0.06505557	      5.91635482	      4.22212368	     -0.87630962	      0.99315541	      0.27234983	     22.52839606	     -7.43203047	    -11.00799907	      4.16373777	     -0.12671873	     -6.64783362	     -1.00491381	    -14.24808464	      6.54762691	     -1.87388534	     -6.37642590	     11.72761972	     -6.91719881	     -0.42729272	    -12.23162167	     -5.80027515	     -2.66020528
      0.58850000	      0.27087668	      5.74694573	      4.37410031	     -0.87044933	      0.99309230	      0.27221057	     22.22551135	     -7.31297940	    -11.02481592	      3.54560924	     -0.27289935	     -6.92729541	     -1.26950088	    -14.80123219	      6.25485410	     -1.70441477	     -6.69224906	     11.85000127	     -6.86671144	     -0.60881759	    -12.57052177	     -5.43993350	     -2.87610719
      0.59266667	      0.45949740	      5.64563057	      4.53149710	     -0.86470205	      0.99282823	      0.27220227	     22.11493448	     -7.26070541	    -10.97535007	      2.85341982	     -0.49341337	     -7.33264364	     -1.37070352	    -15.14643028	      6.03505893	     -1.53463060	     -7.09584197	     11.88735552	     -6.85451538	     -0.68172595	    -12.77911092	     -5.21731309	     -2.97412126
      0.59683333	      0.84179286	      5.45393654	      4.65553864	     -0.85877271	      0.99289970	      0.27217963	     21.73953007	     -7.08974829	    -11.00122229	      2.24027599	     -0.77831465	     -7.66826926	     -1.51348884	    -15.71801504	      5.70714584	     -1.42588117	     -7.46434966	     11.95749799	     -6.79542739	     -0.79719356	    -13.16427314	     -4.83406839	     -3.18611892
      0.60100000	      1.01634242	      5.34430518	      4.81136542	     -0.85297230	      0.99269935	      0.27225260	     21.61744752	     -7.01435814	    -10.96675540	      1.56376700	     -1.13802872	     -8.13123412	     -1.55562971	    -16.00584618	      5.46902249	     -1.25853719	     -7.94936278	     11.95151298	     -6.77856529	     -0.83118772	    -13.34455803	     -4.60273135	     -3.26542825
      0.60516667	      1.40376498	      5.14589656	      4.91169267	     -0.84701006	      0.99285860	      0.27237692	     21.21325243	     -6.80871651	    -10.98235638	      0.98383605	     -1.56914464	     -8.52154862	     -1.59337222	    -16.53472231	      5.12461763	     -1.20179492	     -8.39853806	     11.98708624	     -6.69152000	     -0.87496854	    -13.73677452	     -4.22505597	     -3.46954690
      0.60933333	      1.52628595	      5.02790012	      5.03365858	     -0.84109933	      0.99266145	      0.27252984	     21.12599386	     -6.70615602	    -10.95741384	      0.33924039	     -2.05963434	     -8.98058451	     -1.59813666	    -16.74131938	      4.89017349	     -1.05851381	     -8.93625577	     11.96686071	     -6.74352122	     -0.87717202	    -13.83477621	     -3.99888656	     -3.47626597
